<svg width="48" height="48" viewBox="0 0 48 48" fill="none" xmlns="http://www.w3.org/2000/svg">
<path d="M0 14C0 6.26801 6.26801 0 14 0H34C41.732 0 48 6.26801 48 14V34C48 41.732 41.732 48 34 48H14C6.26801 48 0 41.732 0 34V14Z" fill="url(#paint0_linear_2005_309)"/>
<g clip-path="url(#clip0_2005_309)">
<path d="M23.9999 33.1666C29.0625 33.1666 33.1666 29.0626 33.1666 24C33.1666 18.9374 29.0625 14.8333 23.9999 14.8333C18.9373 14.8333 14.8333 18.9374 14.8333 24C14.8333 29.0626 18.9373 33.1666 23.9999 33.1666Z" stroke="#0059A8" stroke-width="1.83333" stroke-linecap="round" stroke-linejoin="round"/>
<path d="M24 20.3333V24" stroke="#0059A8" stroke-width="1.83333" stroke-linecap="round" stroke-linejoin="round"/>
<path d="M24 27.6667H24.01" stroke="#0059A8" stroke-width="1.83333" stroke-linecap="round" stroke-linejoin="round"/>
</g>
<defs>
<linearGradient id="paint0_linear_2005_309" x1="24" y1="0" x2="24" y2="48" gradientUnits="userSpaceOnUse">
<stop stop-color="#0059A8" stop-opacity="0.08"/>
<stop offset="1" stop-color="#0059A8" stop-opacity="0.04"/>
</linearGradient>
<clipPath id="clip0_2005_309">
<rect width="22" height="22" fill="white" transform="translate(13 13)"/>
</clipPath>
</defs>
</svg>
