<svg width="40" height="40" viewBox="0 0 40 40" fill="none" xmlns="http://www.w3.org/2000/svg">
<path d="M0 20C0 8.95431 8.95431 0 20 0V0C31.0457 0 40 8.95431 40 20V20C40 31.0457 31.0457 40 20 40V40C8.95431 40 0 31.0457 0 20V20Z" fill="#E8F0FF"/>
<g clip-path="url(#clip0_2005_239)">
<path d="M20 15V20L23.3333 21.6667" stroke="#0059A8" stroke-width="1.66667" stroke-linecap="round" stroke-linejoin="round"/>
<path d="M20.0001 28.3333C24.6025 28.3333 28.3334 24.6024 28.3334 20C28.3334 15.3976 24.6025 11.6667 20.0001 11.6667C15.3977 11.6667 11.6667 15.3976 11.6667 20C11.6667 24.6024 15.3977 28.3333 20.0001 28.3333Z" stroke="#0059A8" stroke-width="1.66667" stroke-linecap="round" stroke-linejoin="round"/>
</g>
<defs>
<clipPath id="clip0_2005_239">
<rect width="20" height="20" fill="white" transform="translate(10 10)"/>
</clipPath>
</defs>
</svg>
