<svg width="48" height="48" viewBox="0 0 48 48" fill="none" xmlns="http://www.w3.org/2000/svg">
<path d="M0 14C0 6.26801 6.26801 0 14 0H34C41.732 0 48 6.26801 48 14V34C48 41.732 41.732 48 34 48H14C6.26801 48 0 41.732 0 34V14Z" fill="url(#paint0_linear_2005_300)"/>
<path d="M24 14.8333V33.1666" stroke="#0059A8" stroke-width="1.83333" stroke-linecap="round" stroke-linejoin="round"/>
<path d="M28.5833 17.5833H21.7083C20.8574 17.5833 20.0414 17.9213 19.4397 18.523C18.838 19.1247 18.5 19.9407 18.5 20.7916C18.5 21.6425 18.838 22.4586 19.4397 23.0603C20.0414 23.662 20.8574 24 21.7083 24H26.2917C27.1426 24 27.9586 24.338 28.5603 24.9397C29.162 25.5414 29.5 26.3574 29.5 27.2083C29.5 28.0592 29.162 28.8753 28.5603 29.4769C27.9586 30.0786 27.1426 30.4166 26.2917 30.4166H18.5" stroke="#0059A8" stroke-width="1.83333" stroke-linecap="round" stroke-linejoin="round"/>
<defs>
<linearGradient id="paint0_linear_2005_300" x1="24" y1="0" x2="24" y2="48" gradientUnits="userSpaceOnUse">
<stop stop-color="#0059A8" stop-opacity="0.08"/>
<stop offset="1" stop-color="#0059A8" stop-opacity="0.04"/>
</linearGradient>
</defs>
</svg>
