<svg width="56" height="56" viewBox="0 0 56 56" fill="none" xmlns="http://www.w3.org/2000/svg">
<path d="M0 14C0 6.26801 6.26801 0 14 0H42C49.732 0 56 6.26801 56 14V42C56 49.732 49.732 56 42 56H14C6.26801 56 0 49.732 0 42V14Z" fill="url(#paint0_linear_2005_514)"/>
<path d="M37.1739 22.8119C37.7026 22.2833 37.9997 21.5664 37.9998 20.8187C37.9999 20.0711 37.703 19.3541 37.1744 18.8254C36.6459 18.2967 35.9289 17.9996 35.1813 17.9995C34.4337 17.9994 33.7166 18.2963 33.1879 18.8249L19.8419 32.1739C19.6098 32.4054 19.438 32.6904 19.3419 33.0039L18.0209 37.3559C17.9951 37.4424 17.9931 37.5342 18.0153 37.6217C18.0374 37.7092 18.0829 37.7891 18.1467 37.8529C18.2106 37.9167 18.2906 37.962 18.3781 37.984C18.4656 38.006 18.5575 38.0039 18.6439 37.9779L22.9969 36.6579C23.3101 36.5626 23.5951 36.392 23.8269 36.1609L37.1739 22.8119Z" stroke="#0059A8" stroke-width="2" stroke-linecap="round" stroke-linejoin="round"/>
<path d="M31 21L35 25" stroke="#0059A8" stroke-width="2" stroke-linecap="round" stroke-linejoin="round"/>
<defs>
<linearGradient id="paint0_linear_2005_514" x1="28" y1="0" x2="28" y2="56" gradientUnits="userSpaceOnUse">
<stop stop-color="#E8F0FF"/>
<stop offset="1" stop-color="#0059A8" stop-opacity="0.06"/>
</linearGradient>
</defs>
</svg>
