<svg width="48" height="48" viewBox="0 0 48 48" fill="none" xmlns="http://www.w3.org/2000/svg">
<path d="M0 12C0 5.37258 5.37258 0 12 0H36C42.6274 0 48 5.37258 48 12V36C48 42.6274 42.6274 48 36 48H12C5.37258 48 0 42.6274 0 36V12Z" fill="#0059A8"/>
<path d="M32.25 22.768V30.4167C32.25 30.9029 32.0568 31.3692 31.713 31.713C31.3692 32.0568 30.9029 32.25 30.4167 32.25H17.5833C17.0971 32.25 16.6308 32.0568 16.287 31.713C15.9432 31.3692 15.75 30.9029 15.75 30.4167V17.5833C15.75 17.0971 15.9432 16.6308 16.287 16.287C16.6308 15.9432 17.0971 15.75 17.5833 15.75H28.8987" stroke="white" stroke-width="1.83333" stroke-linecap="round" stroke-linejoin="round"/>
<path d="M21.25 23.0837L24 25.8337L33.1667 16.667" stroke="white" stroke-width="1.83333" stroke-linecap="round" stroke-linejoin="round"/>
</svg>
