<svg width="48" height="48" viewBox="0 0 48 48" fill="none" xmlns="http://www.w3.org/2000/svg">
<path d="M0 12C0 5.37258 5.37258 0 12 0H36C42.6274 0 48 5.37258 48 12V36C48 42.6274 42.6274 48 36 48H12C5.37258 48 0 42.6274 0 36V12Z" fill="#0059A8"/>
<path d="M27.6667 32.25V30.4167C27.6667 29.4442 27.2804 28.5116 26.5927 27.8239C25.9051 27.1363 24.9725 26.75 24 26.75H18.5C17.5275 26.75 16.5949 27.1363 15.9073 27.8239C15.2197 28.5116 14.8333 29.4442 14.8333 30.4167V32.25" stroke="white" stroke-width="1.83333" stroke-linecap="round" stroke-linejoin="round"/>
<path d="M27.6667 15.8672C28.4529 16.071 29.1493 16.5302 29.6464 17.1726C30.1435 17.815 30.4132 18.6043 30.4132 19.4165C30.4132 20.2288 30.1435 21.0181 29.6464 21.6605C29.1493 22.3029 28.4529 22.762 27.6667 22.9659" stroke="white" stroke-width="1.83333" stroke-linecap="round" stroke-linejoin="round"/>
<path d="M33.1667 32.25V30.4166C33.1661 29.6042 32.8956 28.815 32.3979 28.1729C31.9002 27.5308 31.2033 27.0722 30.4167 26.8691" stroke="white" stroke-width="1.83333" stroke-linecap="round" stroke-linejoin="round"/>
<path d="M21.25 23.0833C23.2751 23.0833 24.9167 21.4417 24.9167 19.4167C24.9167 17.3916 23.2751 15.75 21.25 15.75C19.225 15.75 17.5833 17.3916 17.5833 19.4167C17.5833 21.4417 19.225 23.0833 21.25 23.0833Z" stroke="white" stroke-width="1.83333" stroke-linecap="round" stroke-linejoin="round"/>
</svg>
