<svg width="48" height="48" viewBox="0 0 48 48" fill="none" xmlns="http://www.w3.org/2000/svg">
<path d="M0 12C0 5.37258 5.37258 0 12 0H36C42.6274 0 48 5.37258 48 12V36C48 42.6274 42.6274 48 36 48H12C5.37258 48 0 42.6274 0 36V12Z" fill="#0059A8"/>
<path d="M26.75 14.833H21.25C20.7437 14.833 20.3333 15.2434 20.3333 15.7497V17.583C20.3333 18.0893 20.7437 18.4997 21.25 18.4997H26.75C27.2563 18.4997 27.6667 18.0893 27.6667 17.583V15.7497C27.6667 15.2434 27.2563 14.833 26.75 14.833Z" stroke="white" stroke-width="1.83333" stroke-linecap="round" stroke-linejoin="round"/>
<path d="M27.6667 16.667H29.5C29.9862 16.667 30.4525 16.8601 30.7964 17.204C31.1402 17.5478 31.3333 18.0141 31.3333 18.5003V31.3337C31.3333 31.8199 31.1402 32.2862 30.7964 32.63C30.4525 32.9738 29.9862 33.167 29.5 33.167H18.5C18.0138 33.167 17.5474 32.9738 17.2036 32.63C16.8598 32.2862 16.6667 31.8199 16.6667 31.3337V18.5003C16.6667 18.0141 16.8598 17.5478 17.2036 17.204C17.5474 16.8601 18.0138 16.667 18.5 16.667H20.3333" stroke="white" stroke-width="1.83333" stroke-linecap="round" stroke-linejoin="round"/>
</svg>
