<svg width="40" height="40" viewBox="0 0 40 40" fill="none" xmlns="http://www.w3.org/2000/svg">
<path d="M0 20C0 8.95431 8.95431 0 20 0C31.0457 0 40 8.95431 40 20C40 31.0457 31.0457 40 20 40C8.95431 40 0 31.0457 0 20Z" fill="#E8F0FF"/>
<g clip-path="url(#clip0_2005_246)">
<path d="M26.6666 18.3334C26.6666 22.4942 22.0508 26.8275 20.5008 28.1659C20.3564 28.2744 20.1806 28.3331 19.9999 28.3331C19.8193 28.3331 19.6435 28.2744 19.4991 28.1659C17.9491 26.8275 13.3333 22.4942 13.3333 18.3334C13.3333 16.5652 14.0356 14.8696 15.2859 13.6193C16.5361 12.3691 18.2318 11.6667 19.9999 11.6667C21.768 11.6667 23.4637 12.3691 24.714 13.6193C25.9642 14.8696 26.6666 16.5652 26.6666 18.3334Z" stroke="#0059A8" stroke-width="1.66667" stroke-linecap="round" stroke-linejoin="round"/>
<path d="M20 20.8333C21.3807 20.8333 22.5 19.714 22.5 18.3333C22.5 16.9526 21.3807 15.8333 20 15.8333C18.6193 15.8333 17.5 16.9526 17.5 18.3333C17.5 19.714 18.6193 20.8333 20 20.8333Z" stroke="#0059A8" stroke-width="1.66667" stroke-linecap="round" stroke-linejoin="round"/>
</g>
<defs>
<clipPath id="clip0_2005_246">
<rect width="20" height="20" fill="white" transform="translate(10 10)"/>
</clipPath>
</defs>
</svg>
