<svg width="48" height="48" viewBox="0 0 48 48" fill="none" xmlns="http://www.w3.org/2000/svg">
<path d="M0 12C0 5.37258 5.37258 0 12 0H36C42.6274 0 48 5.37258 48 12V36C48 42.6274 42.6274 48 36 48H12C5.37258 48 0 42.6274 0 36V12Z" fill="url(#paint0_linear_1_2793)"/>
<path d="M24 14.25C22.0716 14.25 20.1866 14.8218 18.5832 15.8932C16.9798 16.9645 15.7301 18.4873 14.9922 20.2688C14.2542 22.0504 14.0611 24.0108 14.4373 25.9021C14.8136 27.7934 15.7422 29.5307 17.1057 30.8943C18.4693 32.2579 20.2066 33.1865 22.0979 33.5627C23.9892 33.9389 25.9496 33.7458 27.7312 33.0078C29.5127 32.2699 31.0355 31.0202 32.1068 29.4168C33.1782 27.8134 33.75 25.9284 33.75 24C33.7473 21.415 32.7192 18.9366 30.8913 17.1087C29.0634 15.2808 26.585 14.2527 24 14.25ZM24 32.25C22.3683 32.25 20.7733 31.7661 19.4165 30.8596C18.0598 29.9531 17.0024 28.6646 16.378 27.1571C15.7536 25.6496 15.5902 23.9908 15.9085 22.3905C16.2269 20.7902 17.0126 19.3202 18.1664 18.1664C19.3202 17.0126 20.7902 16.2268 22.3905 15.9085C23.9909 15.5902 25.6497 15.7536 27.1571 16.378C28.6646 17.0024 29.9531 18.0598 30.8596 19.4165C31.7661 20.7733 32.25 22.3683 32.25 24C32.2475 26.1873 31.3775 28.2843 29.8309 29.8309C28.2843 31.3775 26.1873 32.2475 24 32.25ZM25.5 28.5C25.5 28.6989 25.421 28.8897 25.2803 29.0303C25.1397 29.171 24.9489 29.25 24.75 29.25C24.3522 29.25 23.9706 29.092 23.6893 28.8107C23.408 28.5294 23.25 28.1478 23.25 27.75V24C23.0511 24 22.8603 23.921 22.7197 23.7803C22.579 23.6397 22.5 23.4489 22.5 23.25C22.5 23.0511 22.579 22.8603 22.7197 22.7197C22.8603 22.579 23.0511 22.5 23.25 22.5C23.6478 22.5 24.0294 22.658 24.3107 22.9393C24.592 23.2206 24.75 23.6022 24.75 24V27.75C24.9489 27.75 25.1397 27.829 25.2803 27.9697C25.421 28.1103 25.5 28.3011 25.5 28.5ZM22.5 19.875C22.5 19.6525 22.566 19.435 22.6896 19.25C22.8132 19.065 22.9889 18.9208 23.1945 18.8356C23.4001 18.7505 23.6263 18.7282 23.8445 18.7716C24.0627 18.815 24.2632 18.9222 24.4205 19.0795C24.5778 19.2368 24.685 19.4373 24.7284 19.6555C24.7718 19.8738 24.7495 20.1 24.6644 20.3055C24.5792 20.5111 24.435 20.6868 24.25 20.8104C24.065 20.934 23.8475 21 23.625 21C23.3266 21 23.0405 20.8815 22.8295 20.6705C22.6185 20.4595 22.5 20.1734 22.5 19.875Z" fill="white"/>
<defs>
<linearGradient id="paint0_linear_1_2793" x1="24" y1="0" x2="24" y2="48" gradientUnits="userSpaceOnUse">
<stop stop-color="#0059A8"/>
<stop offset="1" stop-color="#003F74"/>
</linearGradient>
</defs>
</svg>
