<svg width="48" height="48" viewBox="0 0 48 48" fill="none" xmlns="http://www.w3.org/2000/svg">
<path d="M0 12C0 5.37258 5.37258 0 12 0H36C42.6274 0 48 5.37258 48 12V36C48 42.6274 42.6274 48 36 48H12C5.37258 48 0 42.6274 0 36V12Z" fill="url(#paint0_linear_1_2803)"/>
<path d="M24 14.25C22.0716 14.25 20.1866 14.8218 18.5832 15.8932C16.9798 16.9645 15.7301 18.4873 14.9922 20.2688C14.2542 22.0504 14.0611 24.0108 14.4373 25.9021C14.8136 27.7934 15.7422 29.5307 17.1057 30.8943C18.4693 32.2579 20.2066 33.1865 22.0979 33.5627C23.9892 33.9389 25.9496 33.7458 27.7312 33.0078C29.5127 32.2699 31.0355 31.0202 32.1068 29.4168C33.1782 27.8134 33.75 25.9284 33.75 24C33.7473 21.415 32.7192 18.9366 30.8913 17.1087C29.0634 15.2808 26.585 14.2527 24 14.25ZM24 32.25C22.3683 32.25 20.7733 31.7661 19.4165 30.8596C18.0598 29.9531 17.0024 28.6646 16.378 27.1571C15.7536 25.6496 15.5902 23.9908 15.9085 22.3905C16.2269 20.7902 17.0126 19.3202 18.1664 18.1664C19.3202 17.0126 20.7902 16.2268 22.3905 15.9085C23.9909 15.5902 25.6497 15.7536 27.1571 16.378C28.6646 17.0024 29.9531 18.0598 30.8596 19.4165C31.7661 20.7733 32.25 22.3683 32.25 24C32.2475 26.1873 31.3775 28.2843 29.8309 29.8309C28.2843 31.3775 26.1873 32.2475 24 32.25ZM24.75 19.5H21.75C21.5511 19.5 21.3603 19.579 21.2197 19.7197C21.079 19.8603 21 20.0511 21 20.25V27.75C21 27.9489 21.079 28.1397 21.2197 28.2803C21.3603 28.421 21.5511 28.5 21.75 28.5C21.9489 28.5 22.1397 28.421 22.2803 28.2803C22.421 28.1397 22.5 27.9489 22.5 27.75V26.25H24.75C25.6451 26.25 26.5036 25.8944 27.1365 25.2615C27.7694 24.6285 28.125 23.7701 28.125 22.875C28.125 21.9799 27.7694 21.1214 27.1365 20.4885C26.5036 19.8556 25.6451 19.5 24.75 19.5ZM24.75 24.75H22.5V21H24.75C25.2473 21 25.7242 21.1975 26.0758 21.5492C26.4275 21.9008 26.625 22.3777 26.625 22.875C26.625 23.3723 26.4275 23.8492 26.0758 24.2008C25.7242 24.5525 25.2473 24.75 24.75 24.75Z" fill="white"/>
<defs>
<linearGradient id="paint0_linear_1_2803" x1="24" y1="0" x2="24" y2="48" gradientUnits="userSpaceOnUse">
<stop stop-color="#0059A8"/>
<stop offset="1" stop-color="#003F74"/>
</linearGradient>
</defs>
</svg>
