<svg width="56" height="56" viewBox="0 0 56 56" fill="none" xmlns="http://www.w3.org/2000/svg">
<path d="M0 14C0 6.26801 6.26801 0 14 0H42C49.732 0 56 6.26801 56 14V42C56 49.732 49.732 56 42 56H14C6.26801 56 0 49.732 0 42V14Z" fill="url(#paint0_linear_1_2907)"/>
<path d="M32 37V35C32 33.9391 31.5786 32.9217 30.8284 32.1716C30.0783 31.4214 29.0609 31 28 31H22C20.9391 31 19.9217 31.4214 19.1716 32.1716C18.4214 32.9217 18 33.9391 18 35V37" stroke="#0059A8" stroke-width="2" stroke-linecap="round" stroke-linejoin="round"/>
<path d="M32 19.1279C32.8578 19.3503 33.6174 19.8512 34.1597 20.552C34.702 21.2528 34.9962 22.1138 34.9962 22.9999C34.9962 23.886 34.702 24.7471 34.1597 25.4479C33.6174 26.1487 32.8578 26.6496 32 26.8719" stroke="#0059A8" stroke-width="2" stroke-linecap="round" stroke-linejoin="round"/>
<path d="M38 36.9999V34.9999C37.9993 34.1136 37.7044 33.2527 37.1614 32.5522C36.6184 31.8517 35.8581 31.3515 35 31.1299" stroke="#0059A8" stroke-width="2" stroke-linecap="round" stroke-linejoin="round"/>
<path d="M25 27C27.2091 27 29 25.2091 29 23C29 20.7909 27.2091 19 25 19C22.7909 19 21 20.7909 21 23C21 25.2091 22.7909 27 25 27Z" stroke="#0059A8" stroke-width="2" stroke-linecap="round" stroke-linejoin="round"/>
<defs>
<linearGradient id="paint0_linear_1_2907" x1="28" y1="0" x2="28" y2="56" gradientUnits="userSpaceOnUse">
<stop stop-color="#E8F0FF"/>
<stop offset="1" stop-color="#0059A8" stop-opacity="0.06"/>
</linearGradient>
</defs>
</svg>
